<svg width="41" height="36" viewBox="0 0 41 36" fill="none" xmlns="http://www.w3.org/2000/svg">
<path d="M20.244 21.9795C22.5103 23.0869 24.4385 24.7808 25.8349 26.8866C27.2312 28.9924 28.0425 31.4338 28.1851 33.9591C28.1996 34.2121 28.1643 34.4654 28.0812 34.7046C27.9981 34.9438 27.8689 35.1642 27.7009 35.3533C27.5329 35.5424 27.3294 35.6965 27.1021 35.8067C26.8748 35.9169 26.628 35.9811 26.376 35.9956C26.124 36.0101 25.8715 35.9747 25.6331 35.8913C25.3947 35.808 25.175 35.6783 24.9866 35.5097C24.7981 35.3411 24.6446 35.137 24.5348 34.9089C24.425 34.6808 24.361 34.4332 24.3465 34.1803C24.2043 31.5475 23.0624 29.0694 21.1555 27.2554C19.2486 25.4414 16.7217 24.4294 14.0941 24.4273C11.4665 24.4294 8.93954 25.4414 7.03265 27.2554C5.12576 29.0694 3.98385 31.5475 3.84166 34.1803C3.82736 34.4332 3.76356 34.6808 3.65389 34.909C3.54422 35.1371 3.39084 35.3414 3.20251 35.5101C3.01417 35.6788 2.79457 35.8086 2.55624 35.8921C2.31791 35.9756 2.06552 36.0113 1.81347 35.9969C1.56143 35.9826 1.31467 35.9185 1.08728 35.8085C0.859895 35.6984 0.656336 35.5445 0.488226 35.3555C0.320117 35.1666 0.190749 34.9462 0.107508 34.707C0.0242681 34.4679 -0.0112142 34.2146 0.00308738 33.9617C0.145229 31.436 0.956317 28.994 2.35268 26.8877C3.74905 24.7814 5.68014 23.0871 7.94674 21.9795C6.63869 20.7434 5.73078 19.1416 5.34068 17.3817C4.95057 15.6217 5.09627 13.7848 5.75887 12.1089C6.42148 10.433 7.57045 8.9955 9.05686 7.98262C10.5433 6.96973 12.2986 6.4282 14.0954 6.4282C15.8921 6.4282 17.6475 6.96973 19.1339 7.98262C20.6203 8.9955 21.7693 10.433 22.4319 12.1089C23.0945 13.7848 23.2402 15.6217 22.8501 17.3817C22.46 19.1416 21.5521 20.7434 20.244 21.9795ZM33.9532 0C34.4629 0 34.9518 0.203178 35.3122 0.564837C35.6726 0.926496 35.8751 1.41701 35.8751 1.92847V5.1426H39.0782C39.5879 5.1426 40.0767 5.34578 40.4371 5.70744C40.7975 6.06909 41 6.55961 41 7.07107C41 7.58254 40.7975 8.07305 40.4371 8.43471C40.0767 8.79637 39.5879 8.99955 39.0782 8.99955H35.8751V12.2137C35.8751 12.7251 35.6726 13.2156 35.3122 13.5773C34.9518 13.939 34.4629 14.1421 33.9532 14.1421C33.4435 14.1421 32.9547 13.939 32.5943 13.5773C32.2338 13.2156 32.0314 12.7251 32.0314 12.2137V8.99955H28.8283C28.3186 8.99955 27.8297 8.79637 27.4693 8.43471C27.1089 8.07305 26.9064 7.58254 26.9064 7.07107C26.9064 6.55961 27.1089 6.06909 27.4693 5.70744C27.8297 5.34578 28.3186 5.1426 28.8283 5.1426H32.0314V1.92847C32.0314 1.41701 32.2338 0.926496 32.5943 0.564837C32.9547 0.203178 33.4435 0 33.9532 0ZM14.0941 10.2852C13.4116 10.2697 12.7329 10.3912 12.0979 10.6425C11.4628 10.8939 10.8842 11.27 10.396 11.7488C9.90781 12.2276 9.51987 12.7995 9.25494 13.4308C8.99002 14.0621 8.85347 14.7402 8.8533 15.4252C8.85313 16.1102 8.98934 16.7883 9.25395 17.4198C9.51856 18.0513 9.90622 18.6233 10.3942 19.1024C10.8821 19.5814 11.4606 19.9578 12.0955 20.2095C12.7304 20.4611 13.409 20.583 14.0915 20.5678C15.4306 20.5381 16.7048 19.9836 17.6415 19.0229C18.5782 18.0622 19.1028 16.7718 19.1032 15.4278C19.1035 14.0838 18.5795 12.7931 17.6433 11.8319C16.7071 10.8708 15.4331 10.3156 14.0941 10.2852Z" fill="white"/>
</svg>
