<svg width="32" height="32" viewBox="0 0 32 32" fill="none" xmlns="http://www.w3.org/2000/svg">
<path d="M13.28 8.35556C13.1318 8.51826 13.0141 8.71204 12.9338 8.92566C12.8535 9.13928 12.8121 9.36849 12.8121 9.6C12.8121 9.83151 12.8535 10.0607 12.9338 10.2743C13.0141 10.488 13.1318 10.6817 13.28 10.8444L16.32 14.2222H1.6C0.72 14.2222 0 15.0222 0 16C0 16.9778 0.72 17.7778 1.6 17.7778H16.32L13.28 21.1556C13.1318 21.3183 13.0141 21.512 12.9338 21.7257C12.8535 21.9393 12.8121 22.1685 12.8121 22.4C12.8121 22.6315 12.8535 22.8607 12.9338 23.0743C13.0141 23.288 13.1318 23.4817 13.28 23.6444C13.904 24.3378 14.896 24.3378 15.52 23.6444L21.264 17.2622C21.4123 17.0978 21.53 16.9024 21.6103 16.6873C21.6906 16.4723 21.7319 16.2417 21.7319 16.0089C21.7319 15.7761 21.6906 15.5455 21.6103 15.3304C21.53 15.1154 21.4123 14.92 21.264 14.7556L15.52 8.35556C15.3736 8.19086 15.1992 8.0601 15.0069 7.97086C14.8146 7.88162 14.6084 7.83566 14.4 7.83566C14.1916 7.83566 13.9854 7.88162 13.7931 7.97086C13.6008 8.0601 13.4264 8.19086 13.28 8.35556ZM28.8 28.4444H17.6C16.72 28.4444 16 29.2444 16 30.2222C16 31.2 16.72 32 17.6 32H28.8C30.56 32 32 30.4 32 28.4444V3.55556C32 1.6 30.56 0 28.8 0H17.6C16.72 0 16 0.8 16 1.77778C16 2.75556 16.72 3.55556 17.6 3.55556H28.8V28.4444Z" fill="white"/>
</svg>
